<svg xmlns="http://www.w3.org/2000/svg" viewBox="0 0 186.13 189.44"><defs><style>.cls-1{fill:#002c54;}</style></defs><g id="Layer_2" data-name="Layer 2"><g id="Layer_1-2" data-name="Layer 1"><path class="cls-1" d="M106.16,87.1a9.28,9.28,0,0,0-2.34,8.57,15.23,15.23,0,0,1,.37,3,14.49,14.49,0,1,1-11.69-14,9,9,0,0,0,8.18-2.56l36.18-37.33h0l2.27-9.53L141,27.55a24.44,24.44,0,0,1,.85-2.8,24,24,0,0,1,5.32-8.44L162.94,0l.36,22.83,22.83-.36-15.8,16.31a24.25,24.25,0,0,1-8.24,5.56,22.68,22.68,0,0,1-2.81,1l-7.64,2.07L142.16,50Z"/><path class="cls-1" d="M173.55,62.46l-3.86,2.75-4.37,3.13-.61.39a78.22,78.22,0,0,1,5.93,30.12,80.19,80.19,0,1,1-48.59-73.62l.39-.5.45-.56,5.76-7.5a76.85,76.85,0,0,0-8.39-3.42c-.9-.28-1.74-.61-2.64-.84a30.52,30.52,0,0,0-3-.89c-1.34-.4-2.69-.73-4.09-1.07a1.3,1.3,0,0,1-.39-.11c-1.57-.34-3.13-.61-4.7-.89a95.44,95.44,0,0,0-9.85-1.12c-1.68-.06-3.36-.12-5-.12s-3.13.06-4.64.12-2.91.16-4.37.33c-.34.06-.67.06-.95.11-1.23.12-2.47.28-3.7.51s-2.4.33-3.64.61-2.24.45-3.36.73c-1.34.34-2.68.67-4,1.06L62,12.86a.85.85,0,0,0-.34.11c-1.23.45-2.46.9-3.7,1.4S55.37,15.44,54.08,16s-2.57,1.18-3.81,1.8c-2.23,1.17-4.42,2.4-6.6,3.75a4,4,0,0,0-.73.39.2.2,0,0,0-.17.06l-1.06.72C40.08,23.78,38.57,24.84,37,26l-1.52,1.18c-1.68,1.23-3.19,2.57-4.75,3.92-.45.39-1,.78-1.4,1.17-1,.84-1.85,1.74-2.75,2.58-1.06,1-2.07,2.07-3,3.13S21.78,40,20.88,41c-.78.9-1.51,1.85-2.24,2.8A89.67,89.67,0,0,0,.11,94.21v.28a30.82,30.82,0,0,0,0,3.19A7.65,7.65,0,0,0,0,98.85c0,1.51.06,3,.11,4.43a82.63,82.63,0,0,0,1.4,11.86c.23,1.12.45,2.24.67,3.31.28,1.4.62,2.74,1,4.08a87.35,87.35,0,0,0,12,26.37c.62.9,1.23,1.85,1.91,2.75a88.43,88.43,0,0,0,16,17.07c1.12.9,2.24,1.79,3.42,2.69s2.35,1.73,3.52,2.52,2.41,1.62,3.7,2.35c1,.62,2,1.23,3,1.79.28.17.56.28.78.39A31.91,31.91,0,0,0,51,180.25a87.31,87.31,0,0,0,21.38,7.34c1.51.33,3,.56,4.48.78,1.68.28,3.36.51,5,.67,2.86.23,5.77.4,8.73.4A91.15,91.15,0,0,0,121.71,184c1.4-.5,2.74-1.06,4.09-1.62l3.36-1.52c2-.95,3.86-1.95,5.76-3a22.78,22.78,0,0,0,2.47-1.45c1.06-.62,2.07-1.24,3.08-2a79.6,79.6,0,0,0,9.46-7.28,88.14,88.14,0,0,0,22.34-29.23c.61-1.17,1.17-2.35,1.67-3.58.17-.39.34-.84.51-1.29.45-1,.84-2,1.23-3a90.38,90.38,0,0,0,5.37-26.48c.06-1.23.12-2.52.12-3.81v-.84A89.26,89.26,0,0,0,173.55,62.46Z"/><path class="cls-1" d="M145.28,98.85a54.7,54.7,0,1,1-54.7-54.69,53.63,53.63,0,0,1,15.18,2.18l-1.46,2-5.54,7.16a44.8,44.8,0,0,0-8.18-.78A44.27,44.27,0,1,0,134,90.62c-.05-.28-.11-.61-.17-.89a48.64,48.64,0,0,0-2.63-8.29l9.69-4.14A48.18,48.18,0,0,1,143.21,84,53,53,0,0,1,145.28,98.85Z"/></g></g></svg>